<svg xmlns="http://www.w3.org/2000/svg" xmlns:xlink="http://www.w3.org/1999/xlink" width="2048" height="2048" viewBox="0 0 2048 2048">
  <defs>
    <clipPath id="clip-version-2-1_1">
      <rect width="2048" height="2048"/>
    </clipPath>
  </defs>
  <g id="version-2-1_1" data-name="version-2-1 – 1" clip-path="url(#clip-version-2-1_1)">
    <rect id="Rectangle_8" data-name="Rectangle 8" width="2048" height="2048" fill="#262626"/>
    <g id="Logo" transform="translate(0.04 0.041)">
      <path id="Polygon_6" data-name="Polygon 6" d="M954.086,0l954.086,1653.1H0Z" transform="translate(394.856 1978.045) rotate(-90)" fill="#8c4d3f"/>
      <g id="Group_3" data-name="Group 3" transform="translate(117.716 0.002)">
        <path id="Intersection_4" data-name="Intersection 4" d="M0,546.847C171.549,221.639,513,0,906.243,0c263.877,0,504.417,99.794,685.971,263.728L275.46,1023.957Z" transform="translate(0 0)" fill="#96493b"/>
        <path id="Intersection_5" data-name="Intersection 5" d="M0,477.11,275.46,0,1592.214,760.229c-181.554,163.934-422.094,263.728-685.971,263.728C513,1023.957,171.549,802.318,0,477.11Z" transform="translate(0 1023.957)" fill="#96493b"/>
      </g>
      <path id="Intersection_3" data-name="Intersection 3" d="M0,546.847C171.549,221.639,513,0,906.243,0c263.877,0,504.417,99.794,685.971,263.728L275.46,1023.957Z" transform="translate(117.716 0.002)" fill="#262626"/>
      <rect id="Rectangle_2" data-name="Rectangle 2" width="2208.906" height="1244.812" transform="translate(253.752 943.463) rotate(30)" fill="#5d784b"/>
      <path id="Polygon_4" data-name="Polygon 4" d="M590.975,0,1181.95,1023.957H0Z" transform="translate(1023.959 432.984) rotate(90)" fill="#253d90"/>
      <path id="Polygon_5" data-name="Polygon 5" d="M227.967,0l68.39,145.6,159.577,20.065L338.624,275.717l30.234,158L227.967,356.133,87.076,433.719l30.234-158L0,165.666,159.577,145.6Z" transform="translate(56.047 807.1)" fill="#f3e16c"/>
    </g>
  </g>
</svg>
