<svg xmlns="http://www.w3.org/2000/svg" xmlns:xlink="http://www.w3.org/1999/xlink" width="400" height="400" viewBox="0 0 400 400"><defs><clipPath id="b"><rect width="400" height="400"/></clipPath></defs><g id="a" clip-path="url(#b)"><g fill="#e4c550" stroke="#565656" stroke-width="16"><circle cx="200" cy="200" r="200" stroke="none"/><circle cx="200" cy="200" r="192" fill="none"/></g><path d="M57.942,138.54,41.789,67.526l-28.529-14.4L0,0,67.34,42.229H141L208.34,0,195.08,53.127l-28.529,14.4L150.4,138.54l-46.228,34.713Z" transform="translate(95.83 173.069)" fill="none" stroke="#565656" stroke-linecap="round" stroke-linejoin="round" stroke-width="16"/><g transform="translate(111.891 74.706)"><g transform="translate(0 0)"><path d="M4239.992,2528.461l-30.027-19.37-25.838-52.923,14.048-63.271-4.22,54.883,28.915,50.807,38.96,29.874Z" transform="translate(-4184.126 -2392.897)" fill="#565656" stroke="#565656" stroke-linejoin="round" stroke-width="12"/><path d="M4253.108,2543.662l9.625-15.244-3.2-28.951,14.747,23.574-5.181,20.621Z" transform="translate(-4193.832 -2408.097)" fill="#565656" stroke="#565656" stroke-linecap="round" stroke-linejoin="round" stroke-width="12"/><path d="M4198.818,2471.976l8.732,11.816,16.43-19.612,8.9-27.44-20.231,31.073Z" transform="translate(-4182.012 -2396.156)" fill="#565656" stroke="#565656" stroke-linecap="round" stroke-linejoin="round" stroke-width="12"/></g><g transform="translate(95.768 0)"><path d="M4205.965,2528.461l30.027-19.37,25.838-52.923-14.048-63.271,4.219,54.883-28.915,50.807-38.96,29.874Z" transform="translate(-4181.379 -2392.897)" fill="#565656" stroke="#565656" stroke-linejoin="round" stroke-width="12"/><path d="M4274.282,2543.662l-9.624-15.244,3.2-28.951-14.748,23.574,5.181,20.621Z" transform="translate(-4253.108 -2408.097)" fill="#565656" stroke="#565656" stroke-linecap="round" stroke-linejoin="round" stroke-width="12"/><path d="M4232.88,2471.976l-8.732,11.816-16.43-19.612-8.9-27.44,20.231,31.073Z" transform="translate(-4169.236 -2396.156)" fill="#565656" stroke="#565656" stroke-linecap="round" stroke-linejoin="round" stroke-width="12"/></g></g></g></svg>